<?xml version="1.0" encoding="UTF-8"?>
<svg version="1.1" xmlns="http://www.w3.org/2000/svg" width="199" height="227">
<path d="M0 0 C1.65 0 3.3 0 5 0 C5.99 1.98 5.99 1.98 7 4 C7.66 4 8.32 4 9 4 C10.56432787 5.69274284 12.05328572 7.45569852 13.5 9.25 C14.2940625 10.22453125 15.088125 11.1990625 15.90625 12.203125 C17.58748034 14.44894762 18.88135899 16.4465803 20 19 C20.66 19 21.32 19 22 19 C22 19.66 22 20.32 22 21 C22.66 21 23.32 21 24 21 C25.56432787 22.69274284 27.05328572 24.45569852 28.5 26.25 C29.2940625 27.22453125 30.088125 28.1990625 30.90625 29.203125 C32.58748034 31.44894762 33.88135899 33.4465803 35 36 C35.66 36 36.32 36 37 36 C38.7265625 37.6796875 38.7265625 37.6796875 40.625 39.875 C41.25664062 40.59429687 41.88828125 41.31359375 42.5390625 42.0546875 C44 44 44 44 44 46 C44.66 46 45.32 46 46 46 C45.8125 47.8125 45.8125 47.8125 45 50 C41.52843788 52.3753613 37.95557659 53.89496355 34.0234375 55.3515625 C27.18159694 57.92615885 20.39692666 60.62215257 13.625 63.375 C12.45122803 63.85179199 11.27745605 64.32858398 10.06811523 64.81982422 C2.50448754 67.91510466 -4.93597464 71.16869871 -12.27734375 74.7578125 C-14.55552137 75.79721061 -16.53006671 76.62177356 -19 77 C-19.33 76.67 -19.66 76.34 -20 76 C-19.50256469 71.00675696 -18.35587937 66.36668819 -16.9375 61.5625 C-16.39416016 59.70818359 -16.39416016 59.70818359 -15.83984375 57.81640625 C-15.42412109 56.42228516 -15.42412109 56.42228516 -15 55 C-23.21388222 59.05133456 -30.16492972 63.90714967 -37 70 C-37.70769531 70.60714844 -38.41539063 71.21429688 -39.14453125 71.83984375 C-47.1853687 81.20107135 -47.14903293 96.85628115 -46.29101562 108.47851562 C-45.11908356 118.63263839 -41.48146268 128.0491881 -35 136 C-34.45730469 136.67933594 -33.91460937 137.35867187 -33.35546875 138.05859375 C-30.59129834 141.5303107 -30.59129834 141.5303107 -27 144 C-27 144.66 -27 145.32 -27 146 C-26.0409375 146.3403125 -26.0409375 146.3403125 -25.0625 146.6875 C-19.77099967 148.95528586 -14.78724042 151.80850639 -10 155 C-10.33 155.99 -10.66 156.98 -11 158 C-13.33181041 158.91640463 -15.52621363 159.61038973 -17.9375 160.25 C-18.66880127 160.45399414 -19.40010254 160.65798828 -20.15356445 160.86816406 C-22.76561218 161.59185289 -25.38280395 162.29516388 -28 163 C-30.23455388 163.61393262 -32.4689191 164.22855223 -34.703125 164.84375 C-37.03094585 165.48028002 -39.35907058 166.11569977 -41.6875 166.75 C-42.80954834 167.05583008 -43.93159668 167.36166016 -45.08764648 167.67675781 C-46.68974976 168.10746582 -46.68974976 168.10746582 -48.32421875 168.546875 C-49.27385498 168.80307617 -50.22349121 169.05927734 -51.2019043 169.32324219 C-54.12017988 170.02906715 -57.03371774 170.54116391 -60 171 C-54.06775952 183.71645167 -46.20776801 200.396116 -33 207 C-33.33 207.99 -33.66 208.98 -34 210 C-42.23632642 207.23026191 -48.92872617 202.98857046 -56 198 C-56.76441406 197.48566406 -57.52882812 196.97132813 -58.31640625 196.44140625 C-59.91783615 195.35113983 -61.46701757 194.18457733 -63 193 C-63 192.34 -63 191.68 -63 191 C-63.66 191 -64.32 191 -65 191 C-65 190.34 -65 189.68 -65 189 C-65.639375 188.731875 -66.27875 188.46375 -66.9375 188.1875 C-69 187 -69 187 -70 184 C-70.66 184 -71.32 184 -72 184 C-87.21105542 167.46624411 -97.06771286 145.47345841 -97.203125 122.93359375 C-97.20882507 122.1776442 -97.21452515 121.42169464 -97.22039795 120.64283752 C-97.22979454 119.04860814 -97.23636052 117.45435979 -97.24023438 115.86010742 C-97.24987615 113.46822466 -97.28092342 111.07722636 -97.3125 108.68554688 C-97.49598233 82.20727834 -87.58030595 58.99449519 -69.23901367 39.88500977 C-52.26417907 22.69758804 -29.01940081 10.46761737 -4.48828125 9.921875 C-3.25658203 9.96054687 -3.25658203 9.96054687 -2 10 C-1.34 6.7 -0.68 3.4 0 0 Z " fill="#91C491" transform="translate(97,0)"/>
<path d="M0 0 C16.35635402 0.74347064 31.04499309 14.85175474 41.57275391 26.36572266 C49.32163761 35.23863191 55.41379792 45.15511105 60 56 C60.2892334 56.62825684 60.5784668 57.25651367 60.87646484 57.90380859 C66.44335436 70.37327264 66.61060779 83.2043744 66.6875 96.625 C66.69884979 97.49460358 66.71019958 98.36420715 66.72189331 99.26016235 C66.86575702 114.82951431 64.66426254 130.09143149 56.8125 143.8125 C56.43375732 144.50134277 56.05501465 145.19018555 55.66479492 145.89990234 C51.76214783 152.79067543 47.04271704 158.9172772 42 165 C41.27103516 165.97453125 41.27103516 165.97453125 40.52734375 166.96875 C26.32914234 185.3786503 1.29601884 195.98733125 -21.02734375 199.47265625 C-23.01351941 199.69543425 -25.00644864 199.85760347 -27 200 C-27.99 203.3 -28.98 206.6 -30 210 C-35 210 -35 210 -37.3125 208.125 C-39 206 -39 206 -39 204 C-39.66 204 -40.32 204 -41 204 C-41 203.34 -41 202.68 -41 202 C-41.66 202 -42.32 202 -43 202 C-44.51740976 200.30096977 -45.965128 198.53927277 -47.375 196.75 C-49.59229313 193.94686688 -51.7305752 191.26298803 -54.2890625 188.765625 C-56 187 -56 187 -56 185 C-56.99 184.67 -57.98 184.34 -59 184 C-60.5078125 182.50390625 -60.5078125 182.50390625 -62.125 180.5625 C-64.18647676 178.10288396 -66.26041855 175.7306015 -68.4921875 173.421875 C-69.31976563 172.56078125 -70.14734375 171.6996875 -71 170.8125 C-71.78375 170.01457031 -72.5675 169.21664062 -73.375 168.39453125 C-75 166 -75 166 -75.1015625 163.34765625 C-74 161 -74 161 -71.5859375 159.6640625 C-69.99652344 159.14972656 -69.99652344 159.14972656 -68.375 158.625 C-63.48195517 156.91640164 -58.86517934 155.06941421 -54.1875 152.8125 C-40.42387434 146.22619105 -26.17513067 140.63148313 -12 135 C-10.86018137 139.73326553 -11.4953573 142.63646155 -12.9375 147.3125 C-13.31777344 148.56675781 -13.69804688 149.82101563 -14.08984375 151.11328125 C-14.39019531 152.06589844 -14.69054687 153.01851562 -15 154 C-2.99090347 148.07675123 7.79933535 141.42417924 12.265625 128.2734375 C12.60998567 126.97816616 12.93772227 125.6783782 13.25 124.375 C13.41765869 123.67842285 13.58531738 122.9818457 13.75805664 122.26416016 C17.52051333 105.50429972 13.78543143 89.49865678 5 75 C1.17496631 69.74638333 1.17496631 69.74638333 -4 66 C-4 65.34 -4 64.68 -4 64 C-4.69480469 63.74476562 -5.38960938 63.48953125 -6.10546875 63.2265625 C-9.35317449 61.85034172 -12.27982916 60.17460687 -15.3125 58.375 C-16.38113281 57.74335937 -17.44976562 57.11171875 -18.55078125 56.4609375 C-19.76314453 55.73777344 -19.76314453 55.73777344 -21 55 C-18.30145231 51.42929811 -14.56549841 50.7996144 -10.4375 49.75 C-9.28689087 49.44292114 -9.28689087 49.44292114 -8.11303711 49.12963867 C-5.41118766 48.4099736 -2.70571284 47.70499701 0 47 C3.47187811 46.08765575 6.94262497 45.17135055 10.41186523 44.24902344 C12.7405362 43.63045258 15.07076307 43.01770628 17.40258789 42.41113281 C18.47500732 42.1272168 19.54742676 41.84330078 20.65234375 41.55078125 C21.61132568 41.29981689 22.57030762 41.04885254 23.55834961 40.7902832 C26.21583374 40.05221157 26.21583374 40.05221157 29 38 C28.4225 36.94039062 27.845 35.88078125 27.25 34.7890625 C26.49978212 33.40115942 25.74979399 32.01313213 25 30.625 C24.6184375 29.92632812 24.236875 29.22765625 23.84375 28.5078125 C21 23.2265625 21 23.2265625 21 21 C20.34 21 19.68 21 19 21 C17.80859375 19.56640625 17.80859375 19.56640625 16.4375 17.5625 C12.78996098 12.51688706 8.46340474 8.31732967 4 4 C2.66437375 2.66896353 1.33032016 1.33633971 0 0 Z " fill="#D48D9B" transform="translate(133,17)"/>
<path d="M0 0 C1.65 0 3.3 0 5 0 C5.99 1.98 5.99 1.98 7 4 C7.66 4 8.32 4 9 4 C10.56432787 5.69274284 12.05328572 7.45569852 13.5 9.25 C14.2940625 10.22453125 15.088125 11.1990625 15.90625 12.203125 C17.58748034 14.44894762 18.88135899 16.4465803 20 19 C20.66 19 21.32 19 22 19 C22 19.66 22 20.32 22 21 C22.66 21 23.32 21 24 21 C25.56432787 22.69274284 27.05328572 24.45569852 28.5 26.25 C29.2940625 27.22453125 30.088125 28.1990625 30.90625 29.203125 C32.58748034 31.44894762 33.88135899 33.4465803 35 36 C35.66 36 36.32 36 37 36 C38.7265625 37.6796875 38.7265625 37.6796875 40.625 39.875 C41.25664062 40.59429687 41.88828125 41.31359375 42.5390625 42.0546875 C44 44 44 44 44 46 C44.66 46 45.32 46 46 46 C45.8125 47.8125 45.8125 47.8125 45 50 C41.52843788 52.3753613 37.95557659 53.89496355 34.0234375 55.3515625 C27.18159694 57.92615885 20.39692666 60.62215257 13.625 63.375 C12.45122803 63.85179199 11.27745605 64.32858398 10.06811523 64.81982422 C2.50448754 67.91510466 -4.93597464 71.16869871 -12.27734375 74.7578125 C-14.55552137 75.79721061 -16.53006671 76.62177356 -19 77 C-19.33 76.67 -19.66 76.34 -20 76 C-19.49366217 70.61755952 -18.14402197 65.65493168 -16.5625 60.5 C-16.1260736 59.05215219 -15.68987317 57.60423624 -15.25390625 56.15625 C-15.0439502 55.46402344 -14.83399414 54.77179687 -14.61767578 54.05859375 C-13.71423951 51.04761562 -12.85571577 48.02485574 -12 45 C-33.55482598 45.01538096 -33.55482598 45.01538096 -54 51 C-55.25876953 51.44666016 -55.25876953 51.44666016 -56.54296875 51.90234375 C-62.30427873 54.05415832 -66.28413829 57.63121856 -70.71484375 61.8359375 C-72.50937911 63.53537783 -74.29487111 65.0616961 -76.25 66.5625 C-81.9812391 71.64246193 -85.167685 76.52979269 -87 84 C-88.5 86.9375 -88.5 86.9375 -90 89 C-90.66 89 -91.32 89 -92 89 C-92.66 90.65 -93.32 92.3 -94 94 C-97.02959532 84.91121403 -92.4382444 74.49294156 -88.43432617 66.32641602 C-75.82947459 41.90399812 -54.18781427 22.65988077 -28.02734375 13.80859375 C-19.60686257 11.55951039 -10.73280974 9.72581445 -2 10 C-1.34 6.7 -0.68 3.4 0 0 Z " fill="#179AAE" transform="translate(97,0)"/>
<path d="M0 0 C0.33 0 0.66 0 1 0 C1.74137473 21.260714 -9.88405853 40.17903767 -23 56 C-23.72896484 56.97453125 -23.72896484 56.97453125 -24.47265625 57.96875 C-38.67085766 76.3786503 -63.70398116 86.98733125 -86.02734375 90.47265625 C-88.01351941 90.69543425 -90.00644864 90.85760347 -92 91 C-92.99 94.3 -93.98 97.6 -95 101 C-100 101 -100 101 -102.3125 99.125 C-104 97 -104 97 -104 95 C-104.66 95 -105.32 95 -106 95 C-106 94.34 -106 93.68 -106 93 C-106.66 93 -107.32 93 -108 93 C-109.51740976 91.30096977 -110.965128 89.53927277 -112.375 87.75 C-114.59229313 84.94686688 -116.7305752 82.26298803 -119.2890625 79.765625 C-121 78 -121 78 -121 76 C-122.485 75.505 -122.485 75.505 -124 75 C-125.5078125 73.50390625 -125.5078125 73.50390625 -127.125 71.5625 C-129.18647676 69.10288396 -131.26041855 66.7306015 -133.4921875 64.421875 C-134.31976563 63.56078125 -135.14734375 62.6996875 -136 61.8125 C-137.175625 60.61560547 -137.175625 60.61560547 -138.375 59.39453125 C-140 57 -140 57 -140.1015625 54.34765625 C-139 52 -139 52 -136.5859375 50.6640625 C-135.52632812 50.32117188 -134.46671875 49.97828125 -133.375 49.625 C-128.48195517 47.91640164 -123.86517934 46.06941421 -119.1875 43.8125 C-105.42387434 37.22619105 -91.17513067 31.63148313 -77 26 C-75.90530731 30.60910312 -76.41231561 33.38071617 -77.8125 37.9375 C-78.16957031 39.12214844 -78.52664062 40.30679688 -78.89453125 41.52734375 C-79.60546624 43.76063422 -80.35032442 45.98355688 -81.13671875 48.19140625 C-82.19587038 51.14753115 -82.19587038 51.14753115 -82 55 C-62.33237103 56.07024521 -62.33237103 56.07024521 -44 50 C-43.06671875 49.54238281 -42.1334375 49.08476562 -41.171875 48.61328125 C-29.98466965 42.91030645 -21.41725915 36.12645848 -14 26 C-13.31808594 25.16082031 -12.63617188 24.32164062 -11.93359375 23.45703125 C-7.11284534 17.33127216 -4.28420606 10.52716542 -1.796875 3.1875 C-1 1 -1 1 0 0 Z " fill="#EDD690" transform="translate(198,126)"/>
<path d="M0 0 C0.66 0 1.32 0 2 0 C1.52229477 1.93786085 1.04278429 3.87527674 0.5625 5.8125 C0.29566406 6.89144531 0.02882813 7.97039062 -0.24609375 9.08203125 C-0.76077412 11.0740843 -1.34937175 13.04811524 -2 15 C-3.58216477 31.52460952 -1.78843781 47.76582062 9 61 C9.54269531 61.67933594 10.08539063 62.35867187 10.64453125 63.05859375 C13.40870166 66.5303107 13.40870166 66.5303107 17 69 C17 69.66 17 70.32 17 71 C17.639375 71.226875 18.27875 71.45375 18.9375 71.6875 C24.22900033 73.95528586 29.21275958 76.80850639 34 80 C33.505 81.485 33.505 81.485 33 83 C30.66818959 83.91640463 28.47378637 84.61038973 26.0625 85.25 C24.9655481 85.55599121 24.9655481 85.55599121 23.84643555 85.86816406 C21.23438782 86.59185289 18.61719605 87.29516388 16 88 C13.76544612 88.61393262 11.5310809 89.22855223 9.296875 89.84375 C6.96905415 90.48028002 4.64092942 91.11569977 2.3125 91.75 C0.62942749 92.20874512 0.62942749 92.20874512 -1.08764648 92.67675781 C-2.68974976 93.10746582 -2.68974976 93.10746582 -4.32421875 93.546875 C-5.27385498 93.80307617 -6.22349121 94.05927734 -7.2019043 94.32324219 C-10.12017988 95.02906715 -13.03371774 95.54116391 -16 96 C-25.92977794 81.55668663 -24.04067677 57.32525416 -21.6328125 40.890625 C-21.05250718 38.23984762 -20.260571 36.37107403 -19 34 C-18.71125 32.72125 -18.4225 31.4425 -18.125 30.125 C-17.17268551 26.10742323 -15.46772034 23.33868045 -13 20 C-10.14577915 15.90922078 -10.14577915 15.90922078 -8 11.4375 C-6.7839465 8.4733696 -5.06357557 6.43877113 -3 4 C-2.46375 3.236875 -1.9275 2.47375 -1.375 1.6875 C-0.92125 1.130625 -0.4675 0.57375 0 0 Z " fill="#DCC283" transform="translate(53,75)"/>
<path d="M0 0 C3.99222256 9.9805564 5.36742766 18.85447083 5.3125 29.625 C5.30404053 31.35532471 5.30404053 31.35532471 5.29541016 33.12060547 C5.0512921 50.31280091 1.32500376 68.02304111 -9.38671875 81.88671875 C-11.1027776 84.03777276 -11.1027776 84.03777276 -12.58203125 86.76953125 C-13.04996094 87.50558594 -13.51789063 88.24164063 -14 89 C-14.66 89 -15.32 89 -16 89 C-15.97643433 87.92854736 -15.97643433 87.92854736 -15.95239258 86.83544922 C-15.53765477 65.11158785 -15.81340003 45.21170569 -31.51953125 28.35546875 C-32.9756473 26.8979487 -32.9756473 26.8979487 -35 26 C-35 25.34 -35 24.68 -35 24 C-36.04220703 23.61714844 -36.04220703 23.61714844 -37.10546875 23.2265625 C-40.35317449 21.85034172 -43.27982916 20.17460687 -46.3125 18.375 C-47.38113281 17.74335937 -48.44976562 17.11171875 -49.55078125 16.4609375 C-50.35902344 15.97882813 -51.16726562 15.49671875 -52 15 C-49.30178822 11.42974259 -45.56551114 10.79847756 -41.4375 9.75 C-39.82809716 9.324324 -38.21872405 8.89853557 -36.609375 8.47265625 C-35.28196289 8.12678467 -35.28196289 8.12678467 -33.92773438 7.77392578 C-30.67884497 6.91510495 -27.44104523 6.02036487 -24.203125 5.12109375 C-21.86463536 4.47637376 -19.52609396 3.83184147 -17.1875 3.1875 C-16.06077881 2.87329102 -14.93405762 2.55908203 -13.77319336 2.23535156 C-12.70721924 1.94499023 -11.64124512 1.65462891 -10.54296875 1.35546875 C-9.59446045 1.09403076 -8.64595215 0.83259277 -7.66870117 0.56323242 C-5.02769023 0.00584406 -2.68993246 -0.10581641 0 0 Z " fill="#7D3B8A" transform="translate(164,57)"/>
<path d="M0 0 C0.495 1.485 0.495 1.485 1 3 C-0.98 3.66 -2.96 4.32 -5 5 C-5 6.32 -5 7.64 -5 9 C-5.66 9 -6.32 9 -7 9 C-7 8.34 -7 7.68 -7 7 C-11.58544817 9.58110689 -11.58544817 9.58110689 -14 14 C-12.948125 13.87625 -12.948125 13.87625 -11.875 13.75 C-7.94400059 14.09182604 -5.96636451 15.44754682 -3 18 C-2.83203125 20.64453125 -2.83203125 20.64453125 -3 23 C-2.2886792 23.01981934 -1.5773584 23.03963867 -0.84448242 23.06005859 C2.37488816 23.15524867 5.5936045 23.26495229 8.8125 23.375 C9.93205078 23.4059375 11.05160156 23.436875 12.20507812 23.46875 C13.81479492 23.52675781 13.81479492 23.52675781 15.45703125 23.5859375 C16.44678955 23.6173584 17.43654785 23.6487793 18.45629883 23.68115234 C21 24 21 24 24 26 C23.29093506 26.00410889 22.58187012 26.00821777 21.85131836 26.01245117 C8.03899064 26.15242206 -4.24103604 26.40542811 -17 32 C-18.26070312 32.44666016 -18.26070312 32.44666016 -19.546875 32.90234375 C-25.3054603 35.05684894 -29.28506412 38.63209718 -33.71484375 42.8359375 C-35.50937911 44.53537783 -37.29487111 46.0616961 -39.25 47.5625 C-44.9812391 52.64246193 -48.167685 57.52979269 -50 65 C-51.5 67.9375 -51.5 67.9375 -53 70 C-53.66 70 -54.32 70 -55 70 C-55.66 71.65 -56.32 73.3 -57 75 C-60.02959532 65.91121403 -55.4382444 55.49294156 -51.43432617 47.32641602 C-42.8654842 30.72393258 -20.81462114 0 0 0 Z " fill="#2599AA" transform="translate(60,19)"/>
<path d="M0 0 C4.289815 3.59147303 6.28640687 6.49779822 7.52734375 12.09765625 C7.92239585 17.40677106 5.52504295 21.26588703 2.1875 25.1875 C-2.26227479 28.8585642 -6.78500174 28.76110429 -12.3125 28.25 C-17.5034714 26.48702858 -19.79776114 24.09320077 -22.3125 19.25 C-23.91200988 13.49176445 -23.04271699 9.40707655 -20.3125 4.25 C-15.17128321 -2.26220794 -7.27579517 -3.84381632 0 0 Z " fill="#570962" transform="translate(107.3125,100.75)"/>
<path d="M0 0 C1.65 0 3.3 0 5 0 C5.66 1.32 6.32 2.64 7 4 C7.66 4 8.32 4 9 4 C10.56432787 5.69274284 12.05328572 7.45569852 13.5 9.25 C14.2940625 10.22453125 15.088125 11.1990625 15.90625 12.203125 C17.58748034 14.44894762 18.88135899 16.4465803 20 19 C20.66 19 21.32 19 22 19 C22 19.66 22 20.32 22 21 C22.66 21 23.32 21 24 21 C25.7265625 22.96875 25.7265625 22.96875 27.625 25.5 C28.25664063 26.3353125 28.88828125 27.170625 29.5390625 28.03125 C30.02117187 28.6809375 30.50328125 29.330625 31 30 C30.34 30.33 29.68 30.66 29 31 C28.01 30.01 28.01 30.01 27 29 C26.01 29 25.02 29 24 29 C23.7525 28.21625 23.505 27.4325 23.25 26.625 C21.84610901 23.67682892 20.99324263 23.0975223 18 22 C18 21.01 18 20.02 18 19 C17.01 19 16.02 19 15 19 C14.34 20.32 13.68 21.64 13 23 C12.01 23 11.02 23 10 23 C10 22.01 10 21.02 10 20 C9.01 20 8.02 20 7 20 C7.57381478 16.67187429 8.59380748 15.30157545 11 13 C11 12.34 11 11.68 11 11 C9.02 10.67 7.04 10.34 5 10 C4.67 11.98 4.34 13.96 4 16 C3.01 15.34 2.02 14.68 1 14 C-8.99970252 13.62074453 -18.81077359 15.55025127 -28.52319336 17.71533203 C-29.33796143 17.89435059 -30.15272949 18.07336914 -30.9921875 18.2578125 C-32.08055908 18.50748779 -32.08055908 18.50748779 -33.19091797 18.76220703 C-35 19 -35 19 -37 18 C-30.19313772 14.68181858 -23.56101483 12.47308672 -16.125 11.1875 C-15.412229 11.0639917 -14.69945801 10.9404834 -13.96508789 10.81323242 C-9.9415807 10.17024493 -6.07163713 9.87874435 -2 10 C-1.34 6.7 -0.68 3.4 0 0 Z " fill="#1D9AAC" transform="translate(97,0)"/>
<path d="M0 0 C1.65 0 3.3 0 5 0 C5.33 0.99 5.66 1.98 6 3 C6.94875 3.103125 7.8975 3.20625 8.875 3.3125 C12 4 12 4 14 7 C13.82633339 9.69183244 13.08388701 10.89575206 11.390625 13 C8.34974466 15.54400446 5.71335712 16.13696712 1.875 17.0625 C-3.50727262 18.11814724 -3.50727262 18.11814724 -7 22 C-7.99 22 -8.98 22 -10 22 C-10 22.66 -10 23.32 -10 24 C-11.32 24.33 -12.64 24.66 -14 25 C-14.33 24.01 -14.66 23.02 -15 22 C-14.67 21.34 -14.34 20.68 -14 20 C-15.32 20.33 -16.64 20.66 -18 21 C-18 20.34 -18 19.68 -18 19 C-17.01 18.34 -16.02 17.68 -15 17 C-14.67 16.01 -14.34 15.02 -14 14 C-13.01 13.67 -12.02 13.34 -11 13 C-10.34 12.34 -9.68 11.68 -9 11 C-8.34 10.38125 -7.68 9.7625 -7 9.125 C-5.12753376 7.13550462 -4.06706364 5.48981516 -3 3 C-2.34 3 -1.68 3 -1 3 C-0.67 2.01 -0.34 1.02 0 0 Z " fill="#129AAF" transform="translate(39,33)"/>
<path d="M0 0 C-0.96099609 0.36351562 -0.96099609 0.36351562 -1.94140625 0.734375 C-9.99896847 3.85653026 -16.29868482 6.94526615 -22.3125 13.28125 C-24 15 -24 15 -27.0625 17.4375 C-32.90741111 22.53625225 -36.14401902 27.43330831 -38 35 C-39.5 37.9375 -39.5 37.9375 -41 40 C-41.66 40 -42.32 40 -43 40 C-43.99 42.475 -43.99 42.475 -45 45 C-47.5749059 37.2752823 -44.32180235 27.53646457 -40.8046875 20.4765625 C-40.40636719 19.74566406 -40.40636719 19.74566406 -40 19 C-39.01 19 -38.02 19 -37 19 C-36.67 18.01 -36.34 17.02 -36 16 C-35.01 15.67 -34.02 15.34 -33 15 C-32.71125 14.0925 -32.4225 13.185 -32.125 12.25 C-30.78945497 8.3917588 -29.12083537 6.58800982 -26 4 C-25.01 4 -24.02 4 -23 4 C-23 5.65 -23 7.3 -23 9 C-21.68 8.67 -20.36 8.34 -19 8 C-19 7.34 -19 6.68 -19 6 C-18.01 6 -17.02 6 -16 6 C-15.77054688 5.37738281 -15.54109375 4.75476562 -15.3046875 4.11328125 C-13.58717693 1.33132551 -12.23469214 1.05027809 -9.125 0.1875 C-8.26132812 -0.06644531 -7.39765625 -0.32039063 -6.5078125 -0.58203125 C-3.94195142 -1.00967476 -2.43603141 -0.83278283 0 0 Z " fill="#169BAD" transform="translate(48,49)"/>
<path d="M0 0 C0.33 0 0.66 0 1 0 C1 2.31 1 4.62 1 7 C1.66 6.34 2.32 5.68 3 5 C3 5.66 3 6.32 3 7 C3.66 7.33 4.32 7.66 5 8 C4.67 8.99 4.34 9.98 4 11 C4.928125 10.814375 5.85625 10.62875 6.8125 10.4375 C10 10 10 10 13 11 C13.763125 10.525625 14.52625 10.05125 15.3125 9.5625 C18.46427849 7.73007064 20.41583089 7.74994169 24 8 C24 7.34 24 6.68 24 6 C23.13375 5.731875 22.2675 5.46375 21.375 5.1875 C18.08208036 4.02888013 15.08872125 2.61790161 12 1 C12 0.67 12 0.34 12 0 C21.67741935 -0.16129032 21.67741935 -0.16129032 26 2 C26.99 2 27.98 2 29 2 C29 2.66 29 3.32 29 4 C32.63 3.67 36.26 3.34 40 3 C37.41857462 4.72095025 35.27382609 5.78484266 32.421875 6.91796875 C31.5148584 7.28212891 30.6078418 7.64628906 29.67333984 8.02148438 C28.7086377 8.40626953 27.74393555 8.79105469 26.75 9.1875 C18.66676903 12.44355832 10.73736948 15.88253526 2.8984375 19.6875 C0.55560576 20.74840494 -1.46412322 21.61902321 -4 22 C-4.33 21.67 -4.66 21.34 -5 21 C-4.50256469 16.00675696 -3.35587937 11.36668819 -1.9375 6.5625 C-1.57527344 5.32628906 -1.21304688 4.09007812 -0.83984375 2.81640625 C-0.56269531 1.88699219 -0.28554687 0.95757812 0 0 Z " fill="#3FA0AF" transform="translate(82,55)"/>
<path d="M0 0 C10.16361457 0.46198248 21.02470551 6.74304279 28 14 C28.73828125 16.2109375 28.73828125 16.2109375 29 18 C28.21625 18.598125 27.4325 19.19625 26.625 19.8125 C23.85425677 21.91085249 23.85425677 21.91085249 22 25 C21.67 23.68 21.34 22.36 21 21 C20.34 21 19.68 21 19 21 C17.80859375 19.56640625 17.80859375 19.56640625 16.4375 17.5625 C12.78996098 12.51688706 8.46340474 8.31732967 4 4 C2.66437375 2.66896353 1.33032016 1.33633971 0 0 Z " fill="#CF8C9B" transform="translate(133,17)"/>
<path d="M0 0 C0.66 0 1.32 0 2 0 C-0.71795313 16.21399623 -9.70135772 29.5773743 -20 42 C-20.72896484 42.97453125 -20.72896484 42.97453125 -21.47265625 43.96875 C-27.29573096 51.51915879 -36.56445782 58.60338349 -45 63 C-47.3125 62.6875 -47.3125 62.6875 -49 62 C-48.67 61.34 -48.34 60.68 -48 60 C-46.35 60 -44.7 60 -43 60 C-43 59.34 -43 58.68 -43 58 C-39.69649386 54.88002198 -38.67590167 54 -34 54 C-33.773125 53.195625 -33.54625 52.39125 -33.3125 51.5625 C-32.6628125 50.2940625 -32.6628125 50.2940625 -32 49 C-29.375 48.1875 -29.375 48.1875 -27 48 C-27 47.01 -27 46.02 -27 45 C-26.34 45 -25.68 45 -25 45 C-24.814375 44.154375 -24.62875 43.30875 -24.4375 42.4375 C-22.79418635 38.50783692 -20.80920668 36.54538566 -17.74609375 33.6796875 C-15.80073391 31.88531963 -15.80073391 31.88531963 -13.6875 29.0625 C-13.130625 28.381875 -12.57375 27.70125 -12 27 C-11.34 27 -10.68 27 -10 27 C-9.67 24.69 -9.34 22.38 -9 20 C-8.34 20 -7.68 20 -7 20 C-7 19.01 -7 18.02 -7 17 C-6.34 17 -5.68 17 -5 17 C-5.04125 16.21625 -5.0825 15.4325 -5.125 14.625 C-5 12 -5 12 -3 10 C-2.39688385 8.31238142 -1.86149763 6.59985524 -1.375 4.875 C-1.11460937 3.96492187 -0.85421875 3.05484375 -0.5859375 2.1171875 C-0.39257812 1.41851562 -0.19921875 0.71984375 0 0 Z " fill="#E9DCAD" transform="translate(195,140)"/>
<path d="M0 0 C0.66 0.33 1.32 0.66 2 1 C1.54625 1.825 1.0925 2.65 0.625 3.5 C-1.14748023 7.31764973 -2.07615106 10.9196672 -3 15 C-3.35287892 16.33367473 -3.70703648 17.66701182 -4.0625 19 C-7.21638164 31.91353112 -6.47745306 45.06813503 -4.6875 58.125 C-4.51105957 59.45760864 -4.51105957 59.45760864 -4.33105469 60.81713867 C-3.5896202 65.79906643 -2.33581783 69.49276207 0 74 C-0.33 74.99 -0.66 75.98 -1 77 C-1 76.34 -1 75.68 -1 75 C-1.61359375 74.82984375 -2.2271875 74.6596875 -2.859375 74.484375 C-6.15963265 72.19587517 -6.47556395 68.98687283 -7.25 65.25 C-7.50257568 64.06301514 -7.50257568 64.06301514 -7.76025391 62.85205078 C-11.45250671 43.57527397 -11.26180897 16.89271345 0 0 Z " fill="#9FC088" transform="translate(37,96)"/>
<path d="M0 0 C0.66 0 1.32 0 2 0 C1.52229477 1.93786085 1.04278429 3.87527674 0.5625 5.8125 C0.29566406 6.89144531 0.02882813 7.97039062 -0.24609375 9.08203125 C-0.76077412 11.0740843 -1.34937175 13.04811524 -2 15 C-2.90142825 26.53555002 -2.45324064 37.92085294 1 49 C0.01 49 -0.98 49 -2 49 C-4.91770391 41.11352185 -5.52436054 33.73706273 -5.6875 25.375 C-5.73874023 23.58255859 -5.73874023 23.58255859 -5.79101562 21.75390625 C-5.87271612 18.83603149 -5.94211753 15.91842782 -6 13 C-6.2568457 13.59675537 -6.51369141 14.19351074 -6.77832031 14.80834961 C-8.55709604 18.88588272 -10.30678297 22.82980731 -12.75 26.5625 C-13.17796875 27.22378906 -13.6059375 27.88507813 -14.046875 28.56640625 C-14.36140625 29.03949219 -14.6759375 29.51257813 -15 30 C-15.33 29.01 -15.66 28.02 -16 27 C-15.34 26.34 -14.68 25.68 -14 25 C-13.690625 24.071875 -13.38125 23.14375 -13.0625 22.1875 C-12.03101066 19.09303197 -10.70067843 16.76360245 -9 14 C-8.5359375 12.7625 -8.5359375 12.7625 -8.0625 11.5 C-6.79956242 8.52838217 -5.08036451 6.4586126 -3 4 C-2.46375 3.236875 -1.9275 2.47375 -1.375 1.6875 C-0.92125 1.130625 -0.4675 0.57375 0 0 Z " fill="#CEC68F" transform="translate(53,75)"/>
<path d="M0 0 C0.66 0.33 1.32 0.66 2 1 C1.21366078 2.14949588 0.42073742 3.29448989 -0.375 4.4375 C-0.81585938 5.07558594 -1.25671875 5.71367188 -1.7109375 6.37109375 C-3 8 -3 8 -5 9 C-5.78624176 10.48132505 -6.53084105 11.98497181 -7.25 13.5 C-9.56498667 17.86046742 -9.56498667 17.86046742 -13.3125 19.0625 C-14.199375 19.041875 -15.08625 19.02125 -16 19 C-16.1546875 19.9590625 -16.1546875 19.9590625 -16.3125 20.9375 C-16.539375 21.618125 -16.76625 22.29875 -17 23 C-17.99 23.33 -18.98 23.66 -20 24 C-20 24.99 -20 25.98 -20 27 C-20.433125 27.4125 -20.86625 27.825 -21.3125 28.25 C-23.29893785 30.0962755 -23.29893785 30.0962755 -24.5 33.625 C-24.995 34.73875 -25.49 35.8525 -26 37 C-27.485 37.495 -27.485 37.495 -29 38 C-29.33 38.66 -29.66 39.32 -30 40 C-30.66 40 -31.32 40 -32 40 C-26.29041006 23.90933745 -13.33192614 10.2853251 0 0 Z " fill="#61ADB8" transform="translate(41,28)"/>
<path d="M0 0 C0.33 0 0.66 0 1 0 C1.60794703 9.37589413 1.17916764 16.05484638 -4 24 C-4.44214844 24.71542969 -4.88429687 25.43085938 -5.33984375 26.16796875 C-6.625 28.125 -6.625 28.125 -9 31 C-9.99 31 -10.98 31 -12 31 C-12 31.66 -12 32.32 -12 33 C-12.721875 33.2475 -13.44375 33.495 -14.1875 33.75 C-17.08704856 34.89626851 -17.08704856 34.89626851 -19.5 37 C-21.97722346 38.98177877 -24.05054272 39.91335784 -27 41 C-27.99 41.66 -28.98 42.32 -30 43 C-30.33 41.68 -30.66 40.36 -31 39 C-29.76636719 38.27296875 -29.76636719 38.27296875 -28.5078125 37.53125 C-11.92800952 27.94243642 -11.92800952 27.94243642 -2.734375 11.81640625 C-2.3952084 10.40103795 -2.06710486 8.98297383 -1.75 7.5625 C-1.57726562 6.83095703 -1.40453125 6.09941406 -1.2265625 5.34570312 C-0.80783167 3.56609712 -0.40248487 1.78335049 0 0 Z " fill="#D19DA8" transform="translate(148,133)"/>
<path d="M0 0 C2.54343685 2.53887053 5.08139143 5.08248967 7.60546875 7.640625 C8.45753906 8.50171875 9.30960938 9.3628125 10.1875 10.25 C11.04730469 11.12140625 11.90710938 11.9928125 12.79296875 12.890625 C14.81431066 15.02994238 14.81431066 15.02994238 17 16 C16.67 16.99 16.34 17.98 16 19 C6.85317849 15.92407772 -2.38998266 11.19259514 -9 4 C-6.36 3.67 -3.72 3.34 -1 3 C-0.67 2.01 -0.34 1.02 0 0 Z " fill="#A0C19C" transform="translate(47,191)"/>
<path d="M0 0 C-10.76535748 8.67768302 -27.46848917 12.03346351 -41 13 C-41.99 16.3 -42.98 19.6 -44 23 C-45.65 23 -47.3 23 -49 23 C-49.66 22.01 -50.32 21.02 -51 20 C-49.35 20.33 -47.7 20.66 -46 21 C-46.061875 19.9275 -46.12375 18.855 -46.1875 17.75 C-45.98766171 13.7532342 -45.72961318 12.75928289 -43 10 C-40.66015625 9.35546875 -40.66015625 9.35546875 -38.0625 9.1875 C-36.78052734 9.08501953 -36.78052734 9.08501953 -35.47265625 8.98046875 C-33.12269497 8.99903085 -31.23898272 9.31947393 -29 10 C-29 9.34 -29 8.68 -29 8 C-27.205625 7.690625 -27.205625 7.690625 -25.375 7.375 C-19.6725903 6.14595449 -14.58268376 3.70545658 -9.33203125 1.2421875 C-5.95063633 -0.01840287 -3.57117855 -0.24927802 0 0 Z " fill="#EADDB3" transform="translate(147,204)"/>
<path d="M0 0 C0.33 0 0.66 0 1 0 C1.1765235 5.11918146 1.2012966 9.24983365 -1 14 C-1.99 14.33 -2.98 14.66 -4 15 C-4.72904086 16.64034193 -5.38655243 18.31301918 -6 20 C-9.87169493 27.16263562 -15.95333068 37.19454573 -24.2109375 39.66015625 C-24.80132812 39.77230469 -25.39171875 39.88445312 -26 40 C-25.319375 39.360625 -24.63875 38.72125 -23.9375 38.0625 C-20.85536902 34.98912507 -18.26243668 31.58328618 -15.62890625 28.125 C-14.42094373 26.54914482 -13.16095205 25.01288477 -11.875 23.5 C-7.19533907 17.2604521 -4.29013344 10.54465606 -1.796875 3.1875 C-1 1 -1 1 0 0 Z " fill="#EAC19C" transform="translate(198,126)"/>
<path d="M0 0 C2 2 2 2 2.125 4.625 C2.08375 5.40875 2.0425 6.1925 2 7 C2.99 6.67 3.98 6.34 5 6 C4.00581033 11.88664939 2.82567192 16.33746235 -1 21 C-1.66 21 -2.32 21 -3 21 C-3.99 23.475 -3.99 23.475 -5 26 C-7.5749059 18.2752823 -4.32180235 8.53646457 -0.8046875 1.4765625 C-0.53914062 0.98929687 -0.27359375 0.50203125 0 0 Z " fill="#72B8AE" transform="translate(8,68)"/>
<path d="M0 0 C-0.37125 0.721875 -0.7425 1.44375 -1.125 2.1875 C-2.21084834 5.6777268 -1.56656046 6.78442854 0 10 C0.35858516 11.32676508 0.7018576 12.65835921 1 14 C-3.04301175 12.51481201 -6.61146256 10.57122002 -10.3125 8.375 C-11.38113281 7.74335937 -12.44976562 7.11171875 -13.55078125 6.4609375 C-14.76314453 5.73777344 -14.76314453 5.73777344 -16 5 C-13.51196416 1.99748896 -11.16518552 1.22287132 -7.4375 0.25 C-6.46683594 -0.01296875 -5.49617188 -0.2759375 -4.49609375 -0.546875 C-2 -1 -2 -1 0 0 Z " fill="#743F80" transform="translate(128,67)"/>
<path d="M0 0 C0.625 1.875 0.625 1.875 1 4 C0.34 4.66 -0.32 5.32 -1 6 C-0.979375 7.0725 -0.95875 8.145 -0.9375 9.25 C-1 13 -1 13 -2.375 15.625 C-7.9399368 27.18294567 -6.60430686 42.44880657 -7 55 C-7.33 55 -7.66 55 -8 55 C-10.09672015 42.41967912 -11.13653896 24.52116998 -5 13 C-4.65026856 11.69692655 -4.33715066 10.38343888 -4.0625 9.0625 C-3.25419855 5.60296978 -2.02971946 2.95231922 0 0 Z " fill="#C8C68A" transform="translate(39,96)"/>
<path d="M0 0 C2 1.375 2 1.375 4 3 C4 3.66 4 4.32 4 5 C4.66 5 5.32 5 6 5 C7.7265625 6.6796875 7.7265625 6.6796875 9.625 8.875 C10.57246094 9.95394531 10.57246094 9.95394531 11.5390625 11.0546875 C13 13 13 13 13 15 C13.66 15 14.32 15 15 15 C14.8125 16.8125 14.8125 16.8125 14 19 C10.33259259 21.52554063 6.46242174 23.11176005 2.3125 24.6875 C0.60513672 25.34298828 0.60513672 25.34298828 -1.13671875 26.01171875 C-4 27 -4 27 -6 27 C-5.67 25.68 -5.34 24.36 -5 23 C-0.46298506 21.54815522 3.18061476 20.76490804 8 21 C8 20.01 8 19.02 8 18 C8.66 18 9.32 18 10 18 C9.34 15.36 8.68 12.72 8 10 C7.236875 9.938125 6.47375 9.87625 5.6875 9.8125 C3 9 3 9 1.1875 6.6875 C0 4 0 4 0 0 Z " fill="#61A6AE" transform="translate(128,31)"/>
<path d="M0 0 C0.33 0 0.66 0 1 0 C1.125 6.625 1.125 6.625 0 10 C-2.44921875 10.87548828 -2.44921875 10.87548828 -5.6875 11.5703125 C-6.86183594 11.82683594 -8.03617188 12.08335938 -9.24609375 12.34765625 C-10.48488281 12.60417969 -11.72367188 12.86070313 -13 13.125 C-14.20785156 13.38925781 -15.41570312 13.65351563 -16.66015625 13.92578125 C-23.10068624 15.3063954 -29.43835813 16.42019975 -36 17 C-34.31833986 13.63667973 -30.93692739 13.21539596 -27.51953125 12.01953125 C-23.43790962 10.83717471 -19.36847552 9.99226808 -15.1875 9.25 C-14.11242187 9.05869507 -14.11242187 9.05869507 -13.015625 8.86352539 C-8.96980167 8.19251768 -5.0986122 7.87131516 -1 8 C-0.67 5.36 -0.34 2.72 0 0 Z " fill="#6BAEB8" transform="translate(96,2)"/>
<path d="M0 0 C9.67741935 -0.16129032 9.67741935 -0.16129032 14 2 C14.99 2 15.98 2 17 2 C17 2.66 17 3.32 17 4 C20.63 3.67 24.26 3.34 28 3 C20.73729467 7.84180355 14.74537887 9.65727273 6 9 C6 8.67 6 8.34 6 8 C7.98 8 9.96 8 12 8 C12 7.34 12 6.68 12 6 C10.700625 5.5978125 10.700625 5.5978125 9.375 5.1875 C6.08208036 4.02888013 3.08872125 2.61790161 0 1 C0 0.67 0 0.34 0 0 Z " fill="#229BB1" transform="translate(94,55)"/>
<path d="M0 0 C0.66 0.33 1.32 0.66 2 1 C-1.625 4 -1.625 4 -5 4 C-5 4.66 -5 5.32 -5 6 C-7.90600261 7.25664978 -9.79604584 8 -13 8 C-13.33 8.99 -13.66 9.98 -14 11 C-15.98 11.33 -17.96 11.66 -20 12 C-19.37344168 14.92393881 -18.5838192 17.44829129 -17 20 C-16.01 20.33 -15.02 20.66 -14 21 C-14.33 22.32 -14.66 23.64 -15 25 C-16.53880489 23.45519587 -18.05558825 21.8884306 -19.5625 20.3125 C-20.40941406 19.44238281 -21.25632813 18.57226562 -22.12890625 17.67578125 C-24 15 -24 15 -24.1484375 12.32421875 C-23 10 -23 10 -20.41015625 8.59375 C-19.30542969 8.2328125 -18.20070313 7.871875 -17.0625 7.5 C-11.73005156 5.65595946 -6.87229186 3.52429702 -1.92578125 0.8203125 C-1.29027344 0.54960937 -0.65476562 0.27890625 0 0 Z " fill="#E8D9B0" transform="translate(82,168)"/>
<path d="M0 0 C0.33 0 0.66 0 1 0 C1.08040527 0.77601563 1.16081055 1.55203125 1.24365234 2.3515625 C1.61486911 5.90168688 1.99486129 9.45082033 2.375 13 C2.50132813 14.22074219 2.62765625 15.44148437 2.7578125 16.69921875 C3.72213419 27.32432599 3.72213419 27.32432599 7.1875 37.3125 C8 39 8 39 7 42 C7 41.34 7 40.68 7 40 C6.37585205 39.77860352 5.7517041 39.55720703 5.10864258 39.32910156 C2.21425548 37.50473623 2.04615858 36.02578466 1.26171875 32.734375 C-0.25283086 25.87224503 -0.34187261 19.24822492 -0.1875 12.25 C-0.17396484 11.0640625 -0.16042969 9.878125 -0.14648438 8.65625 C-0.11157409 5.77033307 -0.06254539 2.88542736 0 0 Z " fill="#AFC287" transform="translate(29,131)"/>
<path d="M0 0 C7.07403834 0.3215472 12.97386577 3.41663627 19 7 C19.33 7.66 19.66 8.32 20 9 C19.34 9 18.68 9 18 9 C17.67 9.66 17.34 10.32 17 11 C16.01 11 15.02 11 14 11 C13.67 11.33 13.34 11.66 13 12 C12.56429687 11.62488281 12.12859375 11.24976563 11.6796875 10.86328125 C11.08414063 10.35152344 10.48859375 9.83976562 9.875 9.3125 C8.92560547 8.49652344 8.92560547 8.49652344 7.95703125 7.6640625 C6.17588663 6.14955629 4.37365561 4.66581794 2.5625 3.1875 C1.716875 2.465625 0.87125 1.74375 0 1 C0 0.67 0 0.34 0 0 Z " fill="#C9AAB1" transform="translate(133,17)"/>
<path d="M0 0 C0 3 0 3 -1.375 4.6875 C-3 6 -3 6 -5 6 C-5.33 6.99 -5.66 7.98 -6 9 C-6.66 8.67 -7.32 8.34 -8 8 C-8 6.35 -8 4.7 -8 3 C-9.04800781 3.14308594 -9.04800781 3.14308594 -10.1171875 3.2890625 C-11.02726562 3.39992188 -11.93734375 3.51078125 -12.875 3.625 C-14.23238281 3.79902344 -14.23238281 3.79902344 -15.6171875 3.9765625 C-16.40351562 3.98429687 -17.18984375 3.99203125 -18 4 C-18.66 3.34 -19.32 2.68 -20 2 C-14.32878054 0.10959351 -5.57838879 -2.78919439 0 0 Z " fill="#039CAF" transform="translate(100,14)"/>
<path d="M0 0 C0.33 0 0.66 0 1 0 C1.309375 1.134375 1.61875 2.26875 1.9375 3.4375 C2.62924531 6.78775099 2.62924531 6.78775099 4 8 C6.29442397 7.90714472 8.58628434 7.749005 10.875 7.5625 C17.2629307 7.0728889 23.59071711 6.88007579 30 7 C27.5196614 9.4803386 25.84115575 9.9637668 22.36450195 10.11352539 C21.33284912 10.10828857 20.30119629 10.10305176 19.23828125 10.09765625 C18.12001953 10.09443359 17.00175781 10.09121094 15.84960938 10.08789062 C14.68236328 10.07951172 13.51511719 10.07113281 12.3125 10.0625 C11.13365234 10.05798828 9.95480469 10.05347656 8.74023438 10.04882812 C5.82677211 10.03703273 2.91341137 10.0205727 0 10 C-0.84676067 6.26798075 -0.95929637 3.73059699 0 0 Z " fill="#D39C8E" transform="translate(116,172)"/>
<path d="M0 0 C0.33 0.99 0.66 1.98 1 3 C-1.04111542 3.48150942 -3.08291932 3.96010083 -5.125 4.4375 C-6.26195312 4.70433594 -7.39890625 4.97117187 -8.5703125 5.24609375 C-14.53583232 6.557421 -19.91737406 7.10487286 -26 7 C-23.80257646 4.80257646 -22.76272326 4.48679064 -19.82421875 3.7109375 C-18.99599609 3.49179687 -18.16777344 3.27265625 -17.31445312 3.046875 C-16.44755859 2.82515625 -15.58066406 2.6034375 -14.6875 2.375 C-13.83220703 2.14554688 -12.97691406 1.91609375 -12.09570312 1.6796875 C-7.99924131 0.61352858 -4.27182383 -0.3346996 0 0 Z " fill="#8A5E90" transform="translate(164,57)"/>
<path d="M0 0 C0.33 0 0.66 0 1 0 C1 2.97 1 5.94 1 9 C1.99 7.68 2.98 6.36 4 5 C4.37589377 12.51787538 4.37589377 12.51787538 2.5625 14.84375 C0.46455451 17.73891477 0.27042435 20.22750501 -0.1875 23.75 C-0.34605469 24.92046875 -0.50460938 26.0909375 -0.66796875 27.296875 C-0.83232422 28.63492188 -0.83232422 28.63492188 -1 30 C-1.33 30 -1.66 30 -2 30 C-2.38297872 9.46808511 -2.38297872 9.46808511 0 0 Z " fill="#85B5B0" transform="translate(2,84)"/>
<path d="M0 0 C2.04119788 1.61594832 4.04072937 3.2856382 6 5 C6 5.66 6 6.32 6 7 C6.66 7 7.32 7 8 7 C8 7.66 8 8.32 8 9 C8.66 9 9.32 9 10 9 C11.7265625 10.96875 11.7265625 10.96875 13.625 13.5 C14.25664063 14.3353125 14.88828125 15.170625 15.5390625 16.03125 C16.02117187 16.6809375 16.50328125 17.330625 17 18 C16.34 18.33 15.68 18.66 15 19 C14.34 18.34 13.68 17.68 13 17 C12.01 17 11.02 17 10 17 C9.7525 16.21625 9.505 15.4325 9.25 14.625 C7.84610901 11.67682892 6.99324263 11.0975223 4 10 C4 9.01 4 8.02 4 7 C3.01 7 2.02 7 1 7 C0.67 4.69 0.34 2.38 0 0 Z " fill="#58A7B1" transform="translate(111,12)"/>
<path d="M0 0 C0 0.99 0 1.98 0 3 C-1.609375 4.5703125 -1.609375 4.5703125 -3.75 6.125 C-4.44609375 6.64320313 -5.1421875 7.16140625 -5.859375 7.6953125 C-7.94594343 8.96705311 -9.61293238 9.55914517 -12 10 C-12 10.66 -12 11.32 -12 12 C-16.62 13.32 -21.24 14.64 -26 16 C-26.33 15.34 -26.66 14.68 -27 14 C-26.23816406 13.69707031 -25.47632813 13.39414063 -24.69140625 13.08203125 C-15.88094414 9.5072495 -7.81464052 5.41013574 0 0 Z " fill="#EEC79C" transform="translate(171,166)"/>
<path d="M0 0 C0.66 0.33 1.32 0.66 2 1 C1.21366078 2.14949588 0.42073742 3.29448989 -0.375 4.4375 C-0.81585938 5.07558594 -1.25671875 5.71367188 -1.7109375 6.37109375 C-3 8 -3 8 -5 9 C-5.78624176 10.48132505 -6.53084105 11.98497181 -7.25 13.5 C-9.56498667 17.86046742 -9.56498667 17.86046742 -13.3125 19.0625 C-14.199375 19.041875 -15.08625 19.02125 -16 19 C-16 18.34 -16 17.68 -16 17 C-15.01 17 -14.02 17 -13 17 C-13 16.34 -13 15.68 -13 15 C-12.34 15 -11.68 15 -11 15 C-11.1134375 14.28457031 -11.226875 13.56914063 -11.34375 12.83203125 C-10.85437559 8.80025347 -8.46891682 7.14943962 -5.5 4.6875 C-4.97535156 4.23310547 -4.45070313 3.77871094 -3.91015625 3.31054688 C-2.61765847 2.1942988 -1.31021858 1.09539378 0 0 Z " fill="#2E98AA" transform="translate(41,28)"/>
<path d="M0 0 C0 0.33 0 0.66 0 1 C-4.29057109 2.17072186 -8.58263033 3.33589137 -12.875 4.5 C-14.09832031 4.83386719 -15.32164063 5.16773438 -16.58203125 5.51171875 C-17.74863281 5.82753906 -18.91523437 6.14335937 -20.1171875 6.46875 C-21.73536377 6.90864258 -21.73536377 6.90864258 -23.38623047 7.35742188 C-26 8 -26 8 -28 8 C-27.67 6.68 -27.34 5.36 -27 4 C-26.01 4 -25.02 4 -24 4 C-24 3.34 -24 2.68 -24 2 C-23.35933594 2.02320313 -22.71867187 2.04640625 -22.05859375 2.0703125 C-14.41123368 2.22986994 -7.59806589 -0.31012514 0 0 Z " fill="#DCCCA0" transform="translate(76,160)"/>
<path d="M0 0 C-0.96099609 0.36351562 -0.96099609 0.36351562 -1.94140625 0.734375 C-10.09088868 3.89214762 -16.43797136 6.98255286 -22.421875 13.51171875 C-24 15 -24 15 -27 16 C-27 15.01 -27 14.02 -27 13 C-26.34 13 -25.68 13 -25 13 C-24.62875 12.0409375 -24.62875 12.0409375 -24.25 11.0625 C-23 9 -23 9 -20.875 8.25 C-19.946875 8.12625 -19.946875 8.12625 -19 8 C-19 7.34 -19 6.68 -19 6 C-18.01 6 -17.02 6 -16 6 C-15.77054688 5.37738281 -15.54109375 4.75476562 -15.3046875 4.11328125 C-13.58717693 1.33132551 -12.23469214 1.05027809 -9.125 0.1875 C-7.82949219 -0.19341797 -7.82949219 -0.19341797 -6.5078125 -0.58203125 C-3.94195142 -1.00967476 -2.43603141 -0.83278283 0 0 Z " fill="#319EA4" transform="translate(48,49)"/>
<path d="M0 0 C1.03450491 1.30674304 2.02172071 2.65064926 3 4 C3.44472656 4.60585937 3.88945313 5.21171875 4.34765625 5.8359375 C8.04241463 11.20826027 8.04241463 11.20826027 7.8125 15.5 C7.544375 16.325 7.27625 17.15 7 18 C6.236875 17.835 5.47375 17.67 4.6875 17.5 C1.96403764 16.90854604 1.96403764 16.90854604 -1 17 C-1.33 16.01 -1.66 15.02 -2 14 C-0.68 14 0.64 14 2 14 C2.80469849 12.29887008 2.80469849 12.29887008 3 10 C2.0337499 7.98347806 1.03291676 5.98320018 0 4 C0 2.68 0 1.36 0 0 Z " fill="#98BE92" transform="translate(39,178)"/>
<path d="M0 0 C0.66 0 1.32 0 2 0 C2 2.31 2 4.62 2 7 C11.24 7 20.48 7 30 7 C29.67 7.66 29.34 8.32 29 9 C19.89166711 11.12887071 8.15423466 11.11404983 -1 9 C-2.60031344 5.79937313 -1.03173691 3.27728194 0 0 Z " fill="#ECC79C" transform="translate(114,174)"/>
<path d="M0 0 C1.921875 0.33984375 1.921875 0.33984375 4 1 C5.25 3.5625 5.25 3.5625 6 6 C6.33 6 6.66 6 7 6 C7.20496094 6.85464844 7.40992188 7.70929688 7.62109375 8.58984375 C7.89050781 9.69457031 8.15992188 10.79929687 8.4375 11.9375 C8.83775391 13.59072266 8.83775391 13.59072266 9.24609375 15.27734375 C9.72995725 17.89421254 9.72995725 17.89421254 11 19 C11.08669432 20.4887186 11.10703494 21.981445 11.09765625 23.47265625 C11.09443359 24.37177734 11.09121094 25.27089844 11.08789062 26.19726562 C11.07951172 27.14279297 11.07113281 28.08832031 11.0625 29.0625 C11.05798828 30.01189453 11.05347656 30.96128906 11.04882812 31.93945312 C11.0370011 34.29303065 11.02052025 36.64648477 11 39 C10.67 39 10.34 39 10 39 C9.90203125 37.76765625 9.8040625 36.5353125 9.703125 35.265625 C8.5799781 22.38852434 6.17952612 11.4762628 0 0 Z " fill="#B090B6" transform="translate(139,93)"/>
<path d="M0 0 C0.47050781 0.40992188 0.94101562 0.81984375 1.42578125 1.2421875 C2.35970703 2.05042969 2.35970703 2.05042969 3.3125 2.875 C3.92738281 3.40867188 4.54226562 3.94234375 5.17578125 4.4921875 C7.13498212 6.1640447 7.13498212 6.1640447 10 8 C9.67 8.99 9.34 9.98 9 11 C3.20319036 8.84624464 -2.00826776 6.67811849 -7 3 C-3.98968256 2.06576355 -3.13349732 1.95550089 0 3 C0 2.01 0 1.02 0 0 Z " fill="#B2BEAE" transform="translate(54,199)"/>
<path d="M0 0 C0.33 0 0.66 0 1 0 C1.56453919 8.70644883 1.88823189 16.96319943 -4 24 C-6.67578125 25.265625 -6.67578125 25.265625 -9 26 C-8.5875 25.21625 -8.175 24.4325 -7.75 23.625 C-3.95262584 15.95826355 -1.36750489 8.45693815 0 0 Z " fill="#C99DAC" transform="translate(148,133)"/>
<path d="M0 0 C2 2 2 2 2.125 4.625 C2.08375 5.40875 2.0425 6.1925 2 7 C2.99 6.67 3.98 6.34 5 6 C3.83242263 9.32310483 2.85051143 11.83361132 0 14 C-0.99 14 -1.98 14 -3 14 C-3.34615998 8.34605369 -2.43425238 4.96993194 0 0 Z " fill="#50A6AE" transform="translate(8,68)"/>
<path d="M0 0 C3.3 1.65 6.6 3.3 10 5 C9.67 5.99 9.34 6.98 9 8 C5.7 8.66 2.4 9.32 -1 10 C-1.33 9.34 -1.66 8.68 -2 8 C-0.68 7.34 0.64 6.68 2 6 C1.34 5.34 0.68 4.68 0 4 C0 2.68 0 1.36 0 0 Z " fill="#DDCCA0" transform="translate(77,150)"/>
<path d="M0 0 C0.33 0 0.66 0 1 0 C1.03738281 0.85980469 1.07476562 1.71960938 1.11328125 2.60546875 C1.58268013 11.04544469 2.83726765 18.81154167 5 27 C4.01 27 3.02 27 2 27 C-1.32524707 17.51908721 -1.43170914 9.84300033 0 0 Z " fill="#D8CA9F" transform="translate(49,97)"/>
<path d="M0 0 C0.33 0.99 0.66 1.98 1 3 C-0.98 3.66 -2.96 4.32 -5 5 C-5 6.32 -5 7.64 -5 9 C-5.66 9 -6.32 9 -7 9 C-7 8.34 -7 7.68 -7 7 C-9.64 7.99 -12.28 8.98 -15 10 C-15.66 9.34 -16.32 8.68 -17 8 C-14.73354942 6.65869239 -12.46239903 5.32683766 -10.1875 4 C-9.54490234 3.6184375 -8.90230469 3.236875 -8.24023438 2.84375 C-3.33984375 0 -3.33984375 0 0 0 Z " fill="#60AAB6" transform="translate(60,19)"/>
<path d="M0 0 C-1.33958343 0.66979172 -2.67931174 1.33929445 -4.01953125 2.0078125 C-5.49812336 2.74856673 -6.97430137 3.49414328 -8.44921875 4.2421875 C-9.31160156 4.67789063 -10.17398438 5.11359375 -11.0625 5.5625 C-11.87847656 5.97628906 -12.69445313 6.39007813 -13.53515625 6.81640625 C-16 8 -16 8 -18.6953125 9.05078125 C-21.08608865 10.03545685 -22.32566871 11.06130061 -24 13 C-24.66 12.67 -25.32 12.34 -26 12 C-20.60806667 6.74536127 -16.23878216 3.17163465 -9 1 C-8.0925 0.5875 -7.185 0.175 -6.25 -0.25 C-3.70468002 -1.09843999 -2.48321432 -0.91970901 0 0 Z " fill="#6AB8A5" transform="translate(52,49)"/>
<path d="M0 0 C1.859348 6.1035119 -0.52183475 11.40557573 -3.375 16.8125 C-5.15584774 20.05823862 -6.92694327 21.92732131 -10 24 C-8.25 18.25 -8.25 18.25 -6 16 C-4.89879353 13.3011883 -3.86376553 10.61421169 -2.875 7.875 C-2.59785156 7.12089844 -2.32070312 6.36679688 -2.03515625 5.58984375 C-1.35183 3.72836879 -0.67526611 1.86441398 0 0 Z " fill="#C682A3" transform="translate(165,115)"/>
<path d="M0 0 C-0.37125 0.721875 -0.7425 1.44375 -1.125 2.1875 C-2.21084834 5.6777268 -1.56656046 6.78442854 0 10 C0.35858516 11.32676508 0.7018576 12.65835921 1 14 C-2.99500618 12.6302836 -5.80009492 10.74277578 -9 8 C-7.35 7.67 -5.7 7.34 -4 7 C-3.74969023 4.58380177 -3.74969023 4.58380177 -4 2 C-4.99 1.34 -5.98 0.68 -7 0 C-2.25 -1.125 -2.25 -1.125 0 0 Z " fill="#92669D" transform="translate(128,67)"/>
<path d="M0 0 C0.33 0.66 0.66 1.32 1 2 C-0.1446875 3.2684375 -0.1446875 3.2684375 -1.3125 4.5625 C-4.00850128 7.76589478 -5.36094213 11.15177717 -7 15 C-9.1875 17.4375 -9.1875 17.4375 -11 19 C-10.39050431 14.8554293 -8.96084772 11.6863937 -7 8 C-6.608125 7.21625 -6.21625 6.4325 -5.8125 5.625 C-5.544375 5.08875 -5.27625 4.5525 -5 4 C-4.34 4 -3.68 4 -3 4 C-2.67 3.01 -2.34 2.02 -2 1 C-1.34 0.67 -0.68 0.34 0 0 Z " fill="#A5C28A" transform="translate(50,77)"/>
<path d="M0 0 C0.33 1.32 0.66 2.64 1 4 C0.34 4 -0.32 4 -1 4 C-1 4.66 -1 5.32 -1 6 C-1.99 6 -2.98 6 -4 6 C-3.938125 7.175625 -3.938125 7.175625 -3.875 8.375 C-4 11 -4 11 -6 13 C-8.625 13.625 -8.625 13.625 -11 14 C-9.57442379 10.82096506 -7.8226848 8.46341568 -5.5 5.875 C-4.8915625 5.19179688 -4.283125 4.50859375 -3.65625 3.8046875 C-2.46695076 2.50880012 -1.24373566 1.24373566 0 0 Z " fill="#66ACB6" transform="translate(29,39)"/>
<path d="M0 0 C0.66 0 1.32 0 2 0 C0.04930025 5.70281101 -3.40223792 9.21110347 -8 13 C-11.5 14.5 -11.5 14.5 -14 15 C-13.319375 14.34 -12.63875 13.68 -11.9375 13 C-8.93989787 10.02809161 -6.25212981 6.81463908 -3.55078125 3.57421875 C-3.03902344 3.05472656 -2.52726563 2.53523437 -2 2 C-1.34 2 -0.68 2 0 2 C0 1.34 0 0.68 0 0 Z " fill="#EFCA9B" transform="translate(186,151)"/>
<path d="M0 0 C3.45101522 4.24740335 6.73279209 8.61105071 10 13 C8.0625 12.625 8.0625 12.625 6 12 C5.67 11.34 5.34 10.68 5 10 C5 10.99 5 11.98 5 13 C2 12 2 12 0 9 C0.66 9 1.32 9 2 9 C1.67 8.2575 1.34 7.515 1 6.75 C0 4 0 4 0 0 Z " fill="#DBC28D" transform="translate(56,129)"/>
<path d="M0 0 C0.33 0 0.66 0 1 0 C1.12375 1.0725 1.2475 2.145 1.375 3.25 C1.90396861 6.42381163 2.48102452 8.26584413 4 11 C4 11.66 4 12.32 4 13 C4.99 13 5.98 13 7 13 C7 14.65 7 16.3 7 18 C3.13995876 16.53584643 1.73327733 14.7141657 0 11 C-0.83061477 7.05457983 -1.38476869 3.84657971 0 0 Z " fill="#84588B" transform="translate(85,109)"/>
<path d="M0 0 C0.99 0.33 1.98 0.66 3 1 C1.9007105 7.31121503 0.41862058 13.06338584 -2 19 C-3.08506842 15.69130545 -2.88446498 13.4384779 -2.125 10.0625 C-1.94195312 9.22847656 -1.75890625 8.39445312 -1.5703125 7.53515625 C-1.38210937 6.69855469 -1.19390625 5.86195312 -1 5 C-0.6626687 3.33413792 -0.32816825 1.66769137 0 0 Z " fill="#3A9A9F" transform="translate(85,45)"/>
<path d="M0 0 C1.06347656 0.00322266 2.12695312 0.00644531 3.22265625 0.00976562 C4.86427734 0.02233398 4.86427734 0.02233398 6.5390625 0.03515625 C7.65667969 0.03966797 8.77429688 0.04417969 9.92578125 0.04882812 C12.67193054 0.06056381 15.41796836 0.07698262 18.1640625 0.09765625 C18.1640625 0.42765625 18.1640625 0.75765625 18.1640625 1.09765625 C17.52903809 1.11747559 16.89401367 1.13729492 16.23974609 1.15771484 C13.33912924 1.25346747 10.43918345 1.36294171 7.5390625 1.47265625 C6.04052734 1.5190625 6.04052734 1.5190625 4.51171875 1.56640625 C-0.66076153 1.77193527 -4.95593711 2.22073302 -9.8359375 4.09765625 C-12.2109375 3.72265625 -12.2109375 3.72265625 -13.8359375 3.09765625 C-10.1819766 -0.55630465 -4.93430618 -0.02652853 0 0 Z " fill="#44A3A0" transform="translate(61.8359375,43.90234375)"/>
<path d="M0 0 C1.65 0 3.3 0 5 0 C5.66 1.32 6.32 2.64 7 4 C7.66 4 8.32 4 9 4 C9 4.66 9 5.32 9 6 C7.35 6 5.7 6 4 6 C4 5.34 4 4.68 4 4 C3.01 4 2.02 4 1 4 C1 5.98 1 7.96 1 10 C0.01 10.495 0.01 10.495 -1 11 C-0.67 7.37 -0.34 3.74 0 0 Z " fill="#5DA2AD" transform="translate(97,0)"/>
<path d="M0 0 C0.66 0 1.32 0 2 0 C2 0.66 2 1.32 2 2 C2.61875 2.061875 3.2375 2.12375 3.875 2.1875 C6 3 6 3 7.25 5.375 C8 8 8 8 8 11 C9.32 11 10.64 11 12 11 C11.67 12.65 11.34 14.3 11 16 C10.34 14.68 9.68 13.36 9 12 C8.34 12 7.68 12 7 12 C5.52734375 10.390625 5.52734375 10.390625 3.9375 8.25 C3.41027344 7.55390625 2.88304687 6.8578125 2.33984375 6.140625 C1.03068432 4.04902334 0.43966046 2.40999065 0 0 Z " fill="#CB9CA6" transform="translate(145,26)"/>
<path d="M0 0 C0.33 0 0.66 0 1 0 C1 1.98 1 3.96 1 6 C1.99 6 2.98 6 4 6 C4.33 4.35 4.66 2.7 5 1 C5.99 1.33 6.98 1.66 8 2 C5.48592381 6.28324091 3.87685861 8.64531705 -1 10 C-1.33 7.69 -1.66 5.38 -2 3 C-1.34 3 -0.68 3 0 3 C0 2.01 0 1.02 0 0 Z " fill="#339BA5" transform="translate(11,65)"/>
<path d="M0 0 C0.33 0.99 0.66 1.98 1 3 C-2.11590199 7.71255984 -6.45290438 11.69302136 -11 15 C-11.66 14.67 -12.32 14.34 -13 14 C-10.30134022 10.40178697 -7.49661545 7.79729236 -4 5 C-2.62631655 3.36643049 -1.28062485 1.7074998 0 0 Z " fill="#D0978C" transform="translate(181,153)"/>
<path d="M0 0 C6.90546218 6.54201681 6.90546218 6.54201681 7.125 12.25 C7.08375 13.1575 7.0425 14.065 7 15 C6.34 14.01 5.68 13.02 5 12 C4.01 11.67 3.02 11.34 2 11 C1.09162237 8.52260646 1 6.66420516 1 4 C0.6937566 2.66018514 0.36548445 1.32488113 0 0 Z " fill="#CA97A2" transform="translate(184,60)"/>
<path d="M0 0 C0.66 0.33 1.32 0.66 2 1 C1.34 4.63 0.68 8.26 0 12 C-1.65 12 -3.3 12 -5 12 C-5.66 11.01 -6.32 10.02 -7 9 C-4.525 9.495 -4.525 9.495 -2 10 C-2.04125 8.906875 -2.0825 7.81375 -2.125 6.6875 C-2 3 -2 3 0 0 Z " fill="#E8DBAC" transform="translate(103,215)"/>
<path d="M0 0 C2.8637061 2.8637061 3.6759258 6.05594799 4 10 C3.15596161 13.98999967 1.89312046 17.10687954 -1 20 C-1.125 17.125 -1.125 17.125 -1 14 C-0.34 13.34 0.32 12.68 1 12 C1.24253813 9.78927023 1.24253813 9.78927023 1.125 7.375 C1.10695313 6.55773437 1.08890625 5.74046875 1.0703125 4.8984375 C1.04710938 4.27195312 1.02390625 3.64546875 1 3 C0.34 2.67 -0.32 2.34 -1 2 C-0.67 1.34 -0.34 0.68 0 0 Z " fill="#7A4F81" transform="translate(111,105)"/>
<path d="M0 0 C1.65 0 3.3 0 5 0 C5 1.32 5 2.64 5 4 C7.475 4.99 7.475 4.99 10 6 C10 7.32 10 8.64 10 10 C9.34 10 8.68 10 8 10 C8 9.34 8 8.68 8 8 C7.360625 7.731875 6.72125 7.46375 6.0625 7.1875 C4 6 4 6 3 3 C2.34 3 1.68 3 1 3 C0.67 2.01 0.34 1.02 0 0 Z " fill="#A8C5A5" transform="translate(24,181)"/>
<path d="M0 0 C0.33 0.66 0.66 1.32 1 2 C-0.96609219 7.4613672 -3.821362 12.16294218 -7 17 C-7.66 16.34 -8.32 15.68 -9 15 C-8.68546875 14.50371094 -8.3709375 14.00742188 -8.046875 13.49609375 C-5.24970291 9.05600432 -2.5727413 4.5737623 0 0 Z " fill="#D1968E" transform="translate(194,132)"/>
<path d="M0 0 C0.33 0.66 0.66 1.32 1 2 C1.66 2 2.32 2 3 2 C3.12375 2.515625 3.2475 3.03125 3.375 3.5625 C3.88897005 5.56698319 4.5226325 7.54039053 5.1875 9.5 C6.06995616 13.30134961 5.8664571 13.83604298 4 17 C3.32635339 14.91891315 2.66133202 12.8350329 2 10.75 C1.62875 9.58984375 1.2575 8.4296875 0.875 7.234375 C-0 4 -0 4 0 0 Z " fill="#B1CEB0" transform="translate(1,134)"/>
<path d="M0 0 C0.66 0.66 1.32 1.32 2 2 C-9.52164009 4.11161731 -9.52164009 4.11161731 -15 5 C-11.24460226 -0.63309661 -6.26630629 -0.41090533 0 0 Z " fill="#8E6195" transform="translate(104,99)"/>
<path d="M0 0 C0.66 0 1.32 0 2 0 C1.54901762 1.93922422 1.08894441 3.87633594 0.625 5.8125 C0.36976562 6.89144531 0.11453125 7.97039062 -0.1484375 9.08203125 C-1 12 -1 12 -3 15 C-4.32963547 9.07707836 -3.71156055 6.21453952 -1 1 C-0.67 0.67 -0.34 0.34 0 0 Z " fill="#CDCEA9" transform="translate(53,75)"/>
<path d="M0 0 C2 1 2 1 2 1 Z M3.625 0.9375 C4.85089844 0.95103516 4.85089844 0.95103516 6.1015625 0.96484375 C7.04128906 0.98224609 7.04128906 0.98224609 8 1 C4.80331012 3.6486859 1.60513403 5.93992341 -2 8 C-2.33 6.02 -2.66 4.04 -3 2 C-0.59454362 0.79727181 0.94996953 0.89928528 3.625 0.9375 Z " fill="#A7CAA4" transform="translate(68,56)"/>
<path d="M0 0 C4.99923125 1.32332592 8.39786925 4.60768155 11 9 C10.67 9.99 10.34 10.98 10 12 C8.33032474 10.19019128 6.66417692 8.3773524 5 6.5625 C4.28457031 5.7880957 4.28457031 5.7880957 3.5546875 4.99804688 C0 1.11328125 0 1.11328125 0 0 Z " fill="#E9E1B1" transform="translate(79,205)"/>
<path d="M0 0 C0.33 0.66 0.66 1.32 1 2 C6.445 1.505 6.445 1.505 12 1 C9.25906335 2.8272911 6.86174676 3.93698178 3.8125 5.125 C2.91144531 5.47820313 2.01039062 5.83140625 1.08203125 6.1953125 C0.05142578 6.59363281 0.05142578 6.59363281 -1 7 C-0.67 4.69 -0.34 2.38 0 0 Z " fill="#67ABB9" transform="translate(110,57)"/>
<path d="M0 0 C-2.84655869 1.44277632 -5.71639675 2.81175104 -8.625 4.125 C-9.40101562 4.47820313 -10.17703125 4.83140625 -10.9765625 5.1953125 C-13 6 -13 6 -15 6 C-14.67 4.68 -14.34 3.36 -14 2 C-9.126739 0.4087311 -5.19209404 -0.21192221 0 0 Z " fill="#70AEB9" transform="translate(137,52)"/>
<path d="M0 0 C6.6 0 13.2 0 20 0 C20 1.98 20 3.96 20 6 C19.01 6 18.02 6 17 6 C17 4.68 17 3.36 17 2 C11.39 1.67 5.78 1.34 0 1 C0 0.67 0 0.34 0 0 Z " fill="#85C3A0" transform="translate(64,46)"/>
<path d="M0 0 C0.66 0.33 1.32 0.66 2 1 C2 1.66 2 2.32 2 3 C2.66 3 3.32 3 4 3 C4 5 4 5 2.75 6.6875 C2.1725 7.120625 1.595 7.55375 1 8 C-1.1875 7.6875 -1.1875 7.6875 -3 7 C-2.25 2.25 -2.25 2.25 0 0 Z " fill="#2798AB" transform="translate(124,28)"/>
<path d="M0 0 C-2.08193187 2.08193187 -3.71979715 2.96575384 -6.375 4.1875 C-7.14585938 4.55230469 -7.91671875 4.91710937 -8.7109375 5.29296875 C-11.27333365 6.08442558 -12.51053693 5.89234179 -15 5 C-14.401875 4.731875 -13.80375 4.46375 -13.1875 4.1875 C-10.95263501 3.16579343 -10.95263501 3.16579343 -9.75 1.375 C-6.80758046 -0.93690107 -3.64351176 -0.1791891 0 0 Z " fill="#65A9B4" transform="translate(107,64)"/>
<path d="M0 0 C1.65 0 3.3 0 5 0 C6.125 3.75 6.125 3.75 5 6 C2.03 6 -0.94 6 -4 6 C-4 5.67 -4 5.34 -4 5 C-2.02 5 -0.04 5 2 5 C2 4.34 2 3.68 2 3 C1.34 2.67 0.68 2.34 0 2 C0 1.34 0 0.68 0 0 Z " fill="#359CAF" transform="translate(104,58)"/>
<path d="M0 0 C0.99 0 1.98 0 3 0 C2.36934243 3.21852831 1.21979305 5.50801069 -0.5625 8.25 C-1.01753906 8.95640625 -1.47257813 9.6628125 -1.94140625 10.390625 C-2.29074219 10.92171875 -2.64007813 11.4528125 -3 12 C-3.66 10.68 -4.32 9.36 -5 8 C-4.01 8 -3.02 8 -2 8 C-1.855625 7.236875 -1.71125 6.47375 -1.5625 5.6875 C-1 3 -1 3 0 0 Z " fill="#864481" transform="translate(157,128)"/>
<path d="M0 0 C-1.3125 1.5 -1.3125 1.5 -3 3 C-3.99 3 -4.98 3 -6 3 C-6.33 3.33 -6.66 3.66 -7 4 C-8.32 2.68 -9.64 1.36 -11 0 C-6.53464227 -1.86921951 -4.33629181 -2.2956839 0 0 Z " fill="#D5ABB5" transform="translate(153,25)"/>
<path d="M0 0 C-1.24853673 0.79397239 -2.49890043 1.58507217 -3.75 2.375 C-4.44609375 2.81585938 -5.1421875 3.25671875 -5.859375 3.7109375 C-9.95365419 6.17647059 -9.95365419 6.17647059 -12 7 C-12.99 6.67 -13.98 6.34 -15 6 C-11.57875892 3.02500775 -4.44240633 -2.22120316 0 0 Z " fill="#D1978D" transform="translate(166,170)"/>
<path d="M0 0 C0.433125 1.3921875 0.433125 1.3921875 0.875 2.8125 C1.8875 6.09791667 1.8875 6.09791667 4 9 C3.625 11.1875 3.625 11.1875 3 13 C1.99466333 11.37829621 0.99588093 9.75252763 0 8.125 C-0.556875 7.22007812 -1.11375 6.31515625 -1.6875 5.3828125 C-3 3 -3 3 -3 1 C-1 0 -1 0 0 0 Z " fill="#ACC9AA" transform="translate(13,159)"/>
<path d="M0 0 C-0.6875 2.375 -0.6875 2.375 -2 5 C-4.625 6.3125 -4.625 6.3125 -7 7 C-6.6875 4.625 -6.6875 4.625 -6 2 C-3 0 -3 0 0 0 Z " fill="#480353" transform="translate(95,102)"/>
<path d="M0 0 C-0.99 0.495 -0.99 0.495 -2 1 C-2 2.65 -2 4.3 -2 6 C-3.98 5.34 -5.96 4.68 -8 4 C-8 3.01 -8 2.02 -8 1 C-3.375 -1.125 -3.375 -1.125 0 0 Z " fill="#997FA0" transform="translate(121,69)"/>
<path d="M0 0 C0.66 0.33 1.32 0.66 2 1 C-1.02299093 4.88670262 -3.45945591 7.84921596 -8 10 C-8.99 10 -9.98 10 -11 10 C-5.555 5.05 -5.555 5.05 0 0 Z " fill="#7AB5BF" transform="translate(41,28)"/>
<path d="M0 0 C1.921875 0.33984375 1.921875 0.33984375 4 1 C5.25 3.5625 5.25 3.5625 6 6 C6.33 6 6.66 6 7 6 C7.33 8.64 7.66 11.28 8 14 C4.83454798 12.41727399 4.28879378 9.60316869 2.875 6.4375 C2.33617187 5.23996094 1.79734375 4.04242188 1.2421875 2.80859375 C0.83226562 1.88175781 0.42234375 0.95492187 0 0 Z " fill="#A37EAB" transform="translate(139,93)"/>
<path d="M0 0 C0.99 0 1.98 0 3 0 C3.32613618 4.67461851 2.70582788 7.16674383 0 11 C-1.35015859 6.94952424 -0.62084998 4.2079832 0 0 Z " fill="#499C98" transform="translate(3,83)"/>
<path d="M0 0 C0.99 0.33 1.98 0.66 3 1 C4.8380113 5.04362487 5.25455926 7.73449853 4 12 C1.21366885 7.82050327 0 5.06624674 0 0 Z " fill="#CD8A99" transform="translate(150,25)"/>
<path d="M0 0 C0.33 0 0.66 0 1 0 C1.02692484 2.29160319 1.04636124 4.58329546 1.0625 6.875 C1.07410156 8.15117187 1.08570313 9.42734375 1.09765625 10.7421875 C1 14 1 14 0 16 C-0.66 16 -1.32 16 -2 16 C-1.50130596 10.63108121 -0.97772468 5.30764827 0 0 Z " fill="#AB89AA" transform="translate(148,133)"/>
<path d="M0 0 C1.32 0.66 2.64 1.32 4 2 C1.36 3.98 -1.28 5.96 -4 8 C-3.67 6.35 -3.34 4.7 -3 3 C-2.01 2.67 -1.02 2.34 0 2 C0 1.34 0 0.68 0 0 Z " fill="#A8C5A4" transform="translate(62,63)"/>
<path d="M0 0 C2.64 0.66 5.28 1.32 8 2 C8 2.99 8 3.98 8 5 C7.01 5.33 6.02 5.66 5 6 C1.8125 4.0625 1.8125 4.0625 -1 2 C-0.67 1.34 -0.34 0.68 0 0 Z " fill="#049BAD" transform="translate(89,61)"/>
<path d="M0 0 C5.875 4.625 5.875 4.625 7 8 C6.34 8 5.68 8 5 8 C4.34 7.34 3.68 6.68 3 6 C2.01 6 1.02 6 0 6 C-1.125 2.25 -1.125 2.25 0 0 Z " fill="#69B1BB" transform="translate(121,23)"/>
<path d="M0 0 C1.65 0.33 3.3 0.66 5 1 C4.67 1.99 4.34 2.98 4 4 C2.02 4.33 0.04 4.66 -2 5 C-2 4.34 -2 3.68 -2 3 C-1.34 3 -0.68 3 0 3 C0 2.01 0 1.02 0 0 Z " fill="#DCD1AE" transform="translate(82,154)"/>
<path d="M0 0 C1.32 0.66 2.64 1.32 4 2 C2.125 6.75 2.125 6.75 1 9 C0.34 9 -0.32 9 -1 9 C-0.67 6.03 -0.34 3.06 0 0 Z " fill="#723B72" transform="translate(149,137)"/>
<path d="M0 0 C0.66 0 1.32 0 2 0 C3.64826111 2.96687001 4.44271087 5.65626525 5 9 C4.01 9 3.02 9 2 9 C1.34 6.03 0.68 3.06 0 0 Z " fill="#723D80" transform="translate(146,102)"/>
<path d="M0 0 C0.33 0 0.66 0 1 0 C1.36116046 1.4774746 1.71375048 2.95704675 2.0625 4.4375 C2.25972656 5.26121094 2.45695313 6.08492188 2.66015625 6.93359375 C2.77230469 7.61550781 2.88445312 8.29742187 3 9 C2.67 9.33 2.34 9.66 2 10 C1.76807135 11.51469448 1.58784762 13.03754562 1.4375 14.5625 C1.35371094 15.38878906 1.26992188 16.21507813 1.18359375 17.06640625 C1.12300781 17.70449219 1.06242188 18.34257813 1 19 C0.67 19 0.34 19 0 19 C0 12.73 0 6.46 0 0 Z " fill="#98BDA6" transform="translate(0,95)"/>
<path d="M0 0 C0.66 0 1.32 0 2 0 C2.33 0.99 2.66 1.98 3 3 C-2.29230769 6.07692308 -2.29230769 6.07692308 -5.875 5.6875 C-6.57625 5.460625 -7.2775 5.23375 -8 5 C-8 4.34 -8 3.68 -8 3 C-5.03 3 -2.06 3 1 3 C0.67 2.01 0.34 1.02 0 0 Z " fill="#5DAAB5" transform="translate(89,68)"/>
<path d="M0 0 C0.33 0 0.66 0 1 0 C0.85923685 1.9587043 0.7122324 3.91696093 0.5625 5.875 C0.48128906 6.96554688 0.40007812 8.05609375 0.31640625 9.1796875 C0 12 0 12 -1 14 C-1.66 14 -2.32 14 -3 14 C-2.28547412 9.23649415 -1.20465156 4.65798604 0 0 Z " fill="#74B0B8" transform="translate(82,55)"/>
<path d="M0 0 C3.65316671 1.24976756 4.78065836 1.67098753 7 5 C5.35 5.33 3.7 5.66 2 6 C0 3 0 3 0 0 Z " fill="#D2A7B0" transform="translate(153,26)"/>
<path d="M0 0 C0.99 0.99 1.98 1.98 3 3 C2.01 3.495 2.01 3.495 1 4 C1 4.99 1 5.98 1 7 C-2.37503669 5.8141763 -4.64722731 4.72426311 -7 2 C-4.69 2.33 -2.38 2.66 0 3 C0 2.01 0 1.02 0 0 Z " fill="#B8CDB5" transform="translate(54,199)"/>
<path d="M0 0 C0.75 1.6875 0.75 1.6875 1 4 C-0.8125 6.75 -0.8125 6.75 -3 9 C-3.66 9 -4.32 9 -5 9 C-4.42647107 5.12867972 -2.51295648 2.91827204 0 0 Z " fill="#E5D6A7" transform="translate(180,170)"/>
<path d="M0 0 C4.29 0 8.58 0 13 0 C13 0.33 13 0.66 13 1 C9.37 1.66 5.74 2.32 2 3 C1.34 2.01 0.68 1.02 0 0 Z " fill="#DED0A6" transform="translate(35,168)"/>
<path d="M0 0 C0.33 0 0.66 0 1 0 C1.25 7.625 1.25 7.625 -1 11 C-2.23076923 4.6 -2.23076923 4.6 -1.0625 1.5625 C-0.711875 1.046875 -0.36125 0.53125 0 0 Z " fill="#E6CEBF" transform="translate(198,126)"/>
<path d="M0 0 C0.66 0 1.32 0 2 0 C2.36923077 6.4 2.36923077 6.4 0.5 9.4375 C0.005 9.953125 -0.49 10.46875 -1 11 C-1.125 3.375 -1.125 3.375 0 0 Z " fill="#CC9E9F" transform="translate(197,119)"/>
<path d="M0 0 C0.33 0 0.66 0 1 0 C1.49230769 7.38461538 1.49230769 7.38461538 -1 10.5 C-1.66 10.995 -2.32 11.49 -3 12 C-2.40075776 7.80530429 -1.42500059 3.99000166 0 0 Z " fill="#80C4A4" transform="translate(5,89)"/>
<path d="M0 0 C1.5625 1.1875 1.5625 1.1875 3 3 C2.6875 5.6875 2.6875 5.6875 2 8 C0.68 7.34 -0.64 6.68 -2 6 C-1.34 4.02 -0.68 2.04 0 0 Z " fill="#C995A5" transform="translate(163,50)"/>
<path d="M0 0 C1.32 0 2.64 0 4 0 C4.99 1.98 5.98 3.96 7 6 C6.01 6 5.02 6 4 6 C4 5.34 4 4.68 4 4 C3.34 4 2.68 4 2 4 C2 3.34 2 2.68 2 2 C1.34 2 0.68 2 0 2 C0 1.34 0 0.68 0 0 Z " fill="#ECE1B3" transform="translate(90,217)"/>
<path d="M0 0 C2.1519437 3.22791555 2.20086443 4.28400809 2 8 C0.68 8.33 -0.64 8.66 -2 9 C-1.34 6.03 -0.68 3.06 0 0 Z " fill="#E7C8A5" transform="translate(195,132)"/>
<path d="M0 0 C-1.6232687 0.6708712 -3.24867578 1.33657029 -4.875 2 C-6.23238281 2.556875 -6.23238281 2.556875 -7.6171875 3.125 C-10 4 -10 4 -12 4 C-12 3.34 -12 2.68 -12 2 C-10.75579353 1.4654744 -9.50429064 0.94791389 -8.25 0.4375 C-7.55390625 0.14746094 -6.8578125 -0.14257812 -6.140625 -0.44140625 C-3.69987216 -1.07831803 -2.3596345 -0.80248831 0 0 Z " fill="#3B9D9D" transform="translate(48,49)"/>
<path d="M0 0 C0.99 0.33 1.98 0.66 3 1 C3.6875 3.0625 3.6875 3.0625 4 5 C2.35 5 0.7 5 -1 5 C-1.33 3.68 -1.66 2.36 -2 1 C-1.34 0.67 -0.68 0.34 0 0 Z " fill="#2298AE" transform="translate(128,36)"/>
<path d="M0 0 C0.33 0 0.66 0 1 0 C1.309375 1.11375 1.61875 2.2275 1.9375 3.375 C2.82326483 6.7945155 2.82326483 6.7945155 4 9 C2.35 9 0.7 9 -1 9 C-0.67 6.03 -0.34 3.06 0 0 Z " fill="#CF9A8A" transform="translate(116,172)"/>
<path d="M0 0 C1.32 0 2.64 0 4 0 C4.33 0.99 4.66 1.98 5 3 C4 4 4 4 1.4375 4.0625 C0.2309375 4.0315625 0.2309375 4.0315625 -1 4 C-0.67 2.68 -0.34 1.36 0 0 Z " fill="#009BB2" transform="translate(48,28)"/>
<path d="M0 0 C1.7074998 1.28062485 3.37373596 2.61767557 5 4 C5 4.66 5 5.32 5 6 C2.69 5.34 0.38 4.68 -2 4 C-1.34 3.67 -0.68 3.34 0 3 C0 2.01 0 1.02 0 0 Z " fill="#69B1BB" transform="translate(106,6)"/>
<path d="M0 0 C2.9375 0.8125 2.9375 0.8125 6 2 C6.33 2.99 6.66 3.98 7 5 C6.34 5.66 5.68 6.32 5 7 C4.67 6.01 4.34 5.02 4 4 C3.01 3.67 2.02 3.34 1 3 C0.67 2.01 0.34 1.02 0 0 Z " fill="#ECE3B4" transform="translate(73,198)"/>
<path d="M0 0 C2.32472205 2.85306797 3.7508258 5.54074837 5 9 C4.01 9 3.02 9 2 9 C0.50178941 5.62902617 0 3.79557881 0 0 Z " fill="#ADC8AB" transform="translate(39,178)"/>
<path d="M0 0 C2.64752004 2.57784846 4.94432065 4.91648098 7 8 C5.0625 7.6875 5.0625 7.6875 3 7 C2.67 6.01 2.34 5.02 2 4 C1.01 4.495 1.01 4.495 0 5 C0 3.35 0 1.7 0 0 Z " fill="#DFCFAA" transform="translate(59,134)"/>
<path d="M0 0 C0 0.99 0 1.98 0 3 C-2.5 5.1875 -2.5 5.1875 -5 7 C-5.1875 4.625 -5.1875 4.625 -5 2 C-2 0 -2 0 0 0 Z " fill="#509EA9" transform="translate(21,52)"/>
<path d="M0 0 C-3.00617269 3.00617269 -5.82381598 2.59585316 -10 3 C-9 1 -9 1 -6.6875 -0.1875 C-3.88010429 -1.03624754 -2.698065 -0.99928333 0 0 Z " fill="#249AA8" transform="translate(50,46)"/>
<path d="M0 0 C0.33 0 0.66 0 1 0 C1.3125 2.1875 1.3125 2.1875 1 5 C-1.5 7.8125 -1.5 7.8125 -4 10 C-3.67 8.35 -3.34 6.7 -3 5 C-2.01 4.67 -1.02 4.34 0 4 C0 2.68 0 1.36 0 0 Z " fill="#EADFBA" transform="translate(185,163)"/>
<path d="M0 0 C0.66 0.33 1.32 0.66 2 1 C2 1.66 2 2.32 2 3 C-2.455 3.495 -2.455 3.495 -7 4 C-4.61426621 2.10786631 -2.92824652 0.97608217 0 0 Z " fill="#EBDCB3" transform="translate(115,154)"/>
<path d="M0 0 C-0.33 0.66 -0.66 1.32 -1 2 C-3.06640625 2.4140625 -3.06640625 2.4140625 -5.5625 2.625 C-6.38878906 2.69976563 -7.21507812 2.77453125 -8.06640625 2.8515625 C-9.02353516 2.92503906 -9.02353516 2.92503906 -10 3 C-9 1 -9 1 -6.6875 -0.1875 C-3.88010429 -1.03624754 -2.698065 -0.99928333 0 0 Z " fill="#85BDC2" transform="translate(70,16)"/>
<path d="M0 0 C0.66 0.33 1.32 0.66 2 1 C1.67 3.64 1.34 6.28 1 9 C0.67 9 0.34 9 0 9 C-0.185625 7.576875 -0.185625 7.576875 -0.375 6.125 C-0.71687177 2.91332809 -0.71687177 2.91332809 -3 1 C-2.01 0.67 -1.02 0.34 0 0 Z " fill="#E8DDC2" transform="translate(120,152)"/>
<path d="M0 0 C0.99 0.33 1.98 0.66 3 1 C3.33 3.64 3.66 6.28 4 9 C1.49701566 6.06171403 0.53069061 3.82097239 0 0 Z " fill="#BBD3BA" transform="translate(6,151)"/>
<path d="M0 0 C0.66 0 1.32 0 2 0 C0.25 7.75 0.25 7.75 -2 10 C-2.22036864 6.14354879 -1.60355101 3.50776784 0 0 Z " fill="#8B4785" transform="translate(163,115)"/>
<path d="M0 0 C0.66 0 1.32 0 2 0 C2.22162329 1.62324086 2.42689803 3.248721 2.625 4.875 C2.74101563 5.77992187 2.85703125 6.68484375 2.9765625 7.6171875 C2.98429687 8.40351562 2.99203125 9.18984375 3 10 C2.34 10.66 1.68 11.32 1 12 C0.01751476 7.9472484 -0.08159574 4.16138263 0 0 Z " fill="#440153" transform="translate(110,108)"/>
<path d="M0 0 C0.33 0.66 0.66 1.32 1 2 C0.06694014 4.71435596 -0.62673377 5.78043163 -3.125 7.25 C-3.74375 7.4975 -4.3625 7.745 -5 8 C-3.8141763 4.62496331 -2.72426311 2.35277269 0 0 Z " fill="#71BDA8" transform="translate(16,71)"/>
<path d="M0 0 C0.66 0.33 1.32 0.66 2 1 C1.2884375 1.6496875 1.2884375 1.6496875 0.5625 2.3125 C-1.23686957 4.02309613 -1.23686957 4.02309613 -2 7 C-2.99 7 -3.98 7 -5 7 C-3.70700306 4.11562221 -2.34058637 2.12780579 0 0 Z " fill="#6DB9A5" transform="translate(22,64)"/>
<path d="" fill="#FFFFFF" transform="translate(0,0)"/>
<path d="" fill="#FFFFFF" transform="translate(0,0)"/>
<path d="" fill="#FFFFFF" transform="translate(0,0)"/>
</svg>
